<?xml version="1.0" standalone="no"?><!DOCTYPE svg PUBLIC "-//W3C//DTD SVG 1.1//EN" "http://www.w3.org/Graphics/SVG/1.1/DTD/svg11.dtd"><svg t="1707303936048" class="icon" viewBox="0 0 1024 1024" version="1.1" xmlns="http://www.w3.org/2000/svg" p-id="9082" data-darkreader-inline-fill="" xmlns:xlink="http://www.w3.org/1999/xlink" width="200" height="200"><path d="M144 288c0-109.056 165.888-192 368-192s368 82.944 368 192v449.76C878.176 846.016 712.896 928 512 928c-200.928 0-366.176-81.984-368-190.496V288z m32 449.216C177.408 822.112 326.336 896 512 896s334.592-73.888 336-158.496V367.52C790.336 434.88 661.024 480 512 480c-148.992 0-278.336-45.088-336-112.48v369.696z m661.056-90.656l-22.4 22.848c-24.16-23.68-60.288-44.576-104.96-60.352l10.688-30.176c48.768 17.28 88.896 40.416 116.672 67.68z m-244.608-96.32l-3.616 31.808a678.72 678.72 0 0 0-124.512-2.656l-2.24-31.936a721.792 721.792 0 0 1 130.368 2.816z m-260.16 19.488l8.864 30.72c-44.608 12.864-82.656 30.528-111.04 51.424l-18.976-25.76c31.68-23.328 73.12-42.56 121.152-56.384zM512 448c186.688 0 336-74.656 336-160S698.688 128 512 128 176 202.656 176 288s149.312 160 336 160z" fill="#00FFFF" p-id="9083" data-darkreader-inline-fill="" style="--darkreader-inline-fill: #00cccc;"></path></svg>