<?xml version="1.0" standalone="no"?><!DOCTYPE svg PUBLIC "-//W3C//DTD SVG 1.1//EN" "http://www.w3.org/Graphics/SVG/1.1/DTD/svg11.dtd"><svg t="1707303879147" class="icon" viewBox="0 0 1024 1024" version="1.1" xmlns="http://www.w3.org/2000/svg" p-id="4186" data-darkreader-inline-fill="" xmlns:xlink="http://www.w3.org/1999/xlink" width="200" height="200"><path d="M499.712 981.162667C246.186667 974.634667 42.666667 767.146667 42.666667 512 42.666667 252.8 252.8 42.666667 512 42.666667s469.333333 210.133333 469.333333 469.333333c0 255.104-203.52 462.634667-457.045333 469.162667L512 981.333333l-12.288-0.170666z m147.498667-264.789334l-12.544 1.578667c-39.424 4.864-80.64 7.381333-122.666667 7.381333-46.506667 0-91.989333-3.072-135.253333-8.96 9.173333 38.528 20.906667 73.813333 34.901333 104.533334 31.829333 70.016 69.546667 104.96 100.352 104.96s68.522667-34.944 100.352-104.96c13.952-30.72 25.728-66.005333 34.858667-104.533334zM113.749333 624.981333l0.170667 0.64a414.72 414.72 0 0 0 285.141333 284.629334c-13.653333-18.773333-26.368-40.96-37.930666-66.389334-18.218667-40.106667-32.853333-86.698667-43.392-137.6-50.901333-10.538667-97.493333-25.173333-137.6-43.392a381.397333 381.397333 0 0 1-66.389334-37.888z m796.501334 0l-7.936 5.546667a395.52 395.52 0 0 1-58.453334 32.341333c-40.106667 18.218667-86.698667 32.853333-137.6 43.392-10.538667 50.901333-25.173333 97.493333-43.392 137.6a381.397333 381.397333 0 0 1-37.888 66.389334 414.72 414.72 0 0 0 281.429334-272.469334l3.84-12.8zM512 354.133333c-50.944 0-100.437333 3.925333-146.602667 11.264A936.277333 936.277333 0 0 0 354.133333 512c0 50.944 3.925333 100.437333 11.264 146.602667 46.165333 7.338667 95.658667 11.264 146.602667 11.264s100.437333-3.925333 146.602667-11.264A936.106667 936.106667 0 0 0 669.866667 512c0-50.944-3.925333-100.437333-11.264-146.602667A936.106667 936.106667 0 0 0 512 354.133333z m-204.373333 22.613334l-9.557334 2.389333c-34.816 8.789333-66.816 19.712-94.976 32.512-70.016 31.829333-104.96 69.546667-104.96 100.352s34.944 68.522667 104.96 100.352c30.72 13.952 66.005333 25.728 104.533334 34.858667A1005.610667 1005.610667 0 0 1 298.666667 512c0-46.506667 3.072-91.989333 8.96-135.253333z m408.746666 0l1.578667 12.586666c4.864 39.424 7.381333 80.64 7.381333 122.666667 0 46.506667-3.072 91.989333-8.96 135.253333 38.528-9.173333 73.813333-20.906667 104.533334-34.901333 70.016-31.829333 104.96-69.546667 104.96-100.352s-34.944-68.522667-104.96-100.352a575.744 575.744 0 0 0-104.533334-34.858667zM399.018667 113.792l-0.64 0.170667a414.72 414.72 0 0 0-284.629334 285.141333c18.773333-13.653333 40.96-26.368 66.389334-37.930667 40.106667-18.218667 86.698667-32.853333 137.6-43.392 10.538667-50.901333 25.173333-97.493333 43.392-137.6 11.562667-25.386667 24.277333-47.616 37.888-66.389333z m225.92 0l5.546666 7.936c11.562667 16.981333 22.4 36.522667 32.384 58.453333 18.218667 40.106667 32.853333 86.698667 43.392 137.6 50.901333 10.538667 97.493333 25.173333 137.6 43.392 25.386667 11.562667 47.616 24.277333 66.389334 37.888a414.72 414.72 0 0 0-272.469334-281.429333l-12.8-3.84zM511.189333 98.133333c-30.634667 0.597333-68.010667 35.541333-99.541333 104.96-13.952 30.72-25.728 66.005333-34.858667 104.533334A1005.610667 1005.610667 0 0 1 512 298.666667c46.506667 0 91.989333 3.072 135.253333 8.96-9.173333-38.528-20.906667-73.813333-34.901333-104.533334-30.208-66.517333-65.792-101.376-95.701333-104.704l-3.84-0.256h-1.621334z" fill="#00FFFF" p-id="4187" data-darkreader-inline-fill="" style="--darkreader-inline-fill: #00cccc;"></path></svg>